<svg width="14" height="14" viewBox="0 0 14 14" fill="none" xmlns="http://www.w3.org/2000/svg">
<path d="M5.279 1.29731C5.8207 -0.432437 8.1793 -0.432435 8.721 1.29731L9.13293 2.61269C9.37518 3.38626 10.07 3.91 10.8539 3.91H12.187C13.9399 3.91 14.6688 6.23736 13.2506 7.3064L12.1721 8.11936C11.5379 8.59745 11.2725 9.44488 11.5148 10.2184L11.9267 11.5338C12.4684 13.2636 10.5603 14.702 9.14209 13.6329L8.06363 12.82C7.4294 12.3419 6.57059 12.3419 5.93637 12.82L4.85791 13.6329C3.43973 14.702 1.53159 13.2636 2.07328 11.5338L2.48521 10.2184C2.72747 9.44488 2.46208 8.59745 1.82785 8.11936L0.749397 7.3064C-0.668782 6.23736 0.0600665 3.91 1.81303 3.91H3.14607C3.93003 3.91 4.62482 3.38626 4.86707 2.61269L5.279 1.29731Z" fill="#D9D9D9"/>
<path d="M6.1395 3.24326C6.41035 2.37839 7.58965 2.37839 7.8605 3.24326L8.32038 4.71177C8.44151 5.09855 8.78891 5.36042 9.18088 5.36042H10.6691C11.5456 5.36042 11.91 6.5241 11.2009 7.05862L9.99692 7.96621C9.67981 8.20526 9.54712 8.62897 9.66824 9.01576L10.1281 10.4843C10.399 11.3491 9.4449 12.0683 8.73581 11.5338L7.53182 10.6262C7.2147 10.3872 6.7853 10.3872 6.46818 10.6262L5.26418 11.5338C4.55509 12.0683 3.60102 11.3491 3.87187 10.4843L4.33175 9.01576C4.45288 8.62897 4.32019 8.20526 4.00307 7.96621L2.79908 7.05862C2.08999 6.5241 2.45441 5.36042 3.33089 5.36042H4.81912C5.21109 5.36042 5.55849 5.09855 5.67961 4.71177L6.1395 3.24326Z" fill="#1E1E1E"/>
</svg>
