<svg width="32" height="32" viewBox="0 0 32 32" fill="none" xmlns="http://www.w3.org/2000/svg">
<path d="M14.0979 5.8541C14.6966 4.01148 17.3034 4.01148 17.9021 5.8541L19.1432 9.67376C19.4109 10.4978 20.1789 11.0557 21.0453 11.0557H25.0615C26.999 11.0557 27.8045 13.535 26.2371 14.6738L22.9879 17.0344C22.2869 17.5437 21.9936 18.4465 22.2614 19.2705L23.5024 23.0902C24.1012 24.9328 21.9922 26.465 20.4248 25.3262L17.1756 22.9656C16.4746 22.4563 15.5254 22.4563 14.8244 22.9656L11.5752 25.3262C10.0078 26.465 7.89885 24.9328 8.49755 23.0902L9.73863 19.2705C10.0064 18.4465 9.71306 17.5437 9.01209 17.0344L5.76289 14.6738C4.19546 13.535 5.00102 11.0557 6.93846 11.0557H10.9547C11.8211 11.0557 12.5891 10.4978 12.8568 9.67376L14.0979 5.8541Z" fill="#D9D9D9"/>
<path d="M15.0489 9.92705C15.3483 9.00574 16.6517 9.00574 16.9511 9.92705L17.7961 12.5279C17.93 12.9399 18.3139 13.2188 18.7472 13.2188H21.4818C22.4505 13.2188 22.8533 14.4585 22.0696 15.0279L19.8572 16.6353C19.5067 16.8899 19.3601 17.3413 19.494 17.7533L20.339 20.3541C20.6384 21.2754 19.5839 22.0415 18.8002 21.4721L16.5878 19.8647C16.2373 19.6101 15.7627 19.6101 15.4122 19.8647L13.1998 21.4721C12.4161 22.0415 11.3616 21.2754 11.661 20.3541L12.506 17.7533C12.6399 17.3413 12.4933 16.8899 12.1428 16.6353L9.93039 15.0279C9.14668 14.4585 9.54945 13.2188 10.5182 13.2188H13.2528C13.6861 13.2188 14.07 12.9399 14.2039 12.5279L15.0489 9.92705Z" fill="#1E1E1E"/>
</svg>
